# Blender 4.0.2
# www.blender.org
o XYZ
v 0.004424 0.143187 -1.025138
v 0.004424 0.206207 -0.976063
v 0.004424 0.206207 -0.944419
v 0.004424 0.120125 -1.012265
v 0.004424 0.023317 -1.012265
v 0.004424 0.023317 -1.038546
v 0.004424 0.119857 -1.038546
v 0.004424 0.206207 -1.106392
v 0.004424 0.206207 -1.074748
v -0.019590 0.143187 -1.025138
v -0.019590 0.206207 -0.976063
v -0.019590 0.206207 -0.944419
v -0.019590 0.120125 -1.012265
v -0.019590 0.206207 -1.106392
v -0.019590 0.206207 -1.074748
v -0.019590 0.023317 -1.012265
v -0.019590 0.023317 -1.038546
v -0.019590 0.119857 -1.038546
v 0.100000 0.100000 -0.100000
v 0.100000 0.100000 -0.060000
v 0.100000 0.100000 -0.020000
v 0.100000 0.100000 0.020000
v -0.020000 0.100000 -0.100000
v 0.020000 0.100000 -0.100000
v 0.060000 0.100000 -0.100000
v -0.020000 0.100000 -0.060000
v 0.020000 0.100000 -0.060000
v 0.060000 0.100000 -0.060000
v -0.020000 0.100000 -0.020000
v 0.020000 0.100000 -0.020000
v 0.060000 0.100000 -0.020000
v -0.020000 0.100000 0.020000
v 0.020000 0.100000 0.020000
v 0.060000 0.100000 0.020000
v 0.100000 0.060000 -0.100000
v 0.100000 0.020000 -0.100000
v 0.100000 -0.020000 -0.100000
v 0.100000 0.060000 -0.060000
v 0.100000 0.020000 -0.060000
v 0.100000 -0.020000 -0.060000
v 0.100000 0.060000 -0.020000
v 0.100000 0.020000 -0.020000
v 0.100000 -0.020000 -0.020000
v 0.100000 0.060000 0.020000
v 0.100000 0.020000 0.020000
v 0.100000 -0.020000 0.020000
v -0.020000 0.060000 -0.100000
v -0.020000 0.020000 -0.100000
v -0.020000 -0.020000 -0.100000
v 0.020000 0.060000 -0.100000
v 0.020000 0.020000 -0.100000
v 0.020000 -0.020000 -0.100000
v 0.060000 0.060000 -0.100000
v 0.060000 0.020000 -0.100000
v 0.060000 -0.020000 -0.100000
v -0.019381 1.071696 -0.019609
v 0.020619 1.071696 -0.019609
v -0.019381 1.071696 0.020391
v 0.020619 1.071696 0.020391
v 1.100619 0.020000 -0.019609
v 1.100619 -0.020000 -0.019609
v 1.100619 0.020000 0.020391
v 1.100619 -0.020000 0.020391
v -0.019381 0.020000 -1.099610
v -0.019381 -0.020000 -1.099610
v 0.020619 0.020000 -1.099610
v 0.020619 -0.020000 -1.099610
v -0.020000 -0.020000 0.020000
v 1.079993 0.183287 -0.079024
v 1.055786 0.183287 -0.079024
v 1.012090 0.129950 -0.079024
v 0.968190 0.183287 -0.079024
v 0.943778 0.183287 -0.079024
v 0.999782 0.115795 -0.079024
v 0.939470 0.043380 -0.079024
v 0.963882 0.043380 -0.079024
v 1.012090 0.101230 -0.079024
v 1.059684 0.043380 -0.079024
v 1.083890 0.043380 -0.079024
v 1.024194 0.115795 -0.079024
v 1.079993 0.183287 -0.060766
v 1.055786 0.183287 -0.060766
v 1.012090 0.129950 -0.060766
v 0.968190 0.183287 -0.060766
v 0.943778 0.183287 -0.060766
v 0.999782 0.115795 -0.060766
v 0.939470 0.043380 -0.060766
v 0.963882 0.043380 -0.060766
v 1.024194 0.115795 -0.060766
v 1.012090 0.101230 -0.060766
v 1.059684 0.043380 -0.060766
v 1.083890 0.043380 -0.060766
vn -1.0000 -0.0000 -0.0000
vn 1.0000 -0.0000 -0.0000
vn -0.0000 0.6178 0.7863
vn -0.0000 -0.6144 0.7890
vn -0.0000 -0.6186 -0.7857
vn -0.0000 1.0000 -0.0000
vn -0.0000 -1.0000 -0.0000
vn -0.0000 -0.0000 -1.0000
vn -0.0000 0.6190 -0.7854
vn -0.0000 -0.0000 1.0000
vn -0.0000 0.0004 -1.0000
vn -1.0000 0.0006 -0.0000
vn -0.0000 -0.0004 1.0000
vn 0.0004 -0.0000 -1.0000
vn -1.0000 -0.0000 -0.0006
vn -0.0004 -0.0000 1.0000
vn 1.0000 -0.0000 0.0006
vn 1.0000 -0.0006 -0.0000
vn 0.7682 -0.6402 -0.0000
vn -0.7696 -0.6386 -0.0000
vn -0.7736 0.6337 -0.0000
vn -0.7722 -0.6353 -0.0000
vn -0.7684 0.6400 -0.0000
vn 0.7707 -0.6372 -0.0000
vn 0.7721 0.6355 -0.0000
vn 0.7716 0.6361 -0.0000
vt 0.375000 0.000000
vt 0.250000 0.000000
vt 0.125000 0.000000
vt 0.000000 0.000000
vt 1.000000 0.000000
vt 0.875000 0.000000
vt 0.750000 0.000000
vt 0.500000 0.000000
vt 0.625000 0.000000
vt 0.625000 0.450000
vt 0.575000 0.500000
vt 0.575000 0.450000
vt 0.625000 0.500000
vt 0.575000 0.550000
vt 0.625000 0.550000
vt 0.575000 0.600000
vt 0.625000 0.600000
vt 0.575000 0.650000
vt 0.675000 0.600000
vt 0.625000 0.650000
vt 0.725000 0.600000
vt 0.675000 0.650000
vt 0.525000 0.400000
vt 0.525000 0.350000
vt 0.675000 0.550000
vt 0.725000 0.550000
vt 0.775000 0.550000
vt 0.675000 0.500000
vt 0.725000 0.500000
vt 0.775000 0.500000
vt 0.625000 0.350000
vt 0.575000 0.400000
vt 0.575000 0.350000
vt 0.625000 0.400000
vt 0.475000 0.450000
vt 0.475000 0.400000
vt 0.525000 0.450000
vt 0.775000 0.600000
vt 0.475000 0.650000
vt 0.475000 0.600000
vt 0.525000 0.650000
vt 0.525000 0.600000
vt 0.525000 0.550000
vt 0.475000 0.550000
vt 0.525000 0.500000
vt 0.475000 0.500000
vt 0.725000 0.650000
vt 0.475000 0.350000
vt 0.775000 0.650000
vt 0.454545 0.000000
vt 0.363636 0.000000
vt 0.272727 0.000000
vt 0.181818 0.000000
vt 0.090909 0.000000
vt 0.545455 0.000000
vt 0.727273 0.000000
vt 0.909091 0.000000
vt 0.636364 0.000000
vt 0.818182 0.000000
s 0
f 4/1/1 3/2/1 2/3/1
f 4/1/1 2/3/1 1/4/1
f 1/4/1 9/5/1 8/6/1
f 1/4/1 8/6/1 7/7/1
f 4/1/1 1/4/1 7/7/1
f 5/8/1 4/1/1 7/7/1
f 5/8/1 7/7/1 6/9/1
f 13/1/2 11/3/2 12/2/2
f 13/1/2 10/4/2 11/3/2
f 10/4/2 14/6/2 15/5/2
f 10/4/2 18/7/2 14/6/2
f 13/1/2 18/7/2 10/4/2
f 16/8/2 18/7/2 13/1/2
f 16/8/2 17/9/2 18/7/2
f 8/6/3 18/7/3 7/7/3
f 2/3/4 10/4/4 1/4/4
f 1/4/5 15/5/5 9/5/5
f 6/9/6 16/8/6 5/8/6
f 3/2/7 11/3/7 2/3/7
f 5/8/8 13/1/8 4/1/8
f 4/1/9 12/2/9 3/2/9
f 7/7/10 17/9/10 6/9/10
f 9/5/7 14/6/7 8/6/7
f 25/10/8 35/11/8 53/12/8
f 19/13/2 38/14/2 35/11/2
f 20/15/2 41/16/2 38/14/2
f 21/17/2 44/18/2 41/16/2
f 31/19/6 22/20/6 21/17/6
f 30/21/6 34/22/6 31/19/6
f 51/23/6 64/24/6 48/24/6
f 28/25/6 21/17/6 20/15/6
f 27/26/6 31/19/6 28/25/6
f 26/27/6 30/21/6 27/26/6
f 25/28/6 20/15/6 19/13/6
f 24/29/6 28/25/6 25/28/6
f 23/30/6 27/26/6 24/29/6
f 23/31/8 50/32/8 47/33/8
f 24/34/8 53/12/8 50/32/8
f 51/23/8 55/35/8 52/36/8
f 50/32/8 54/37/8 51/23/8
f 30/21/11 56/38/11 57/21/11
f 47/33/8 51/23/8 48/24/8
f 46/39/7 61/40/7 63/39/7
f 41/16/2 45/41/2 42/42/2
f 39/43/2 43/40/2 40/44/2
f 38/14/2 42/42/2 39/43/2
f 36/45/2 40/44/2 37/46/2
f 35/11/2 39/43/2 36/45/2
f 54/37/8 37/46/8 55/35/8
f 53/12/8 36/45/8 54/37/8
f 56/38/6 59/47/6 57/21/6
f 64/24/8 67/36/8 65/48/8
f 60/42/2 63/39/2 61/40/2
f 32/49/12 56/38/12 29/38/12
f 45/41/6 60/42/6 42/42/6
f 33/47/13 58/49/13 32/49/13
f 42/42/14 61/40/14 43/40/14
f 48/24/15 65/48/15 49/48/15
f 46/39/16 62/41/16 45/41/16
f 52/36/17 66/23/17 51/23/17
f 52/36/7 65/48/7 67/36/7
f 33/47/18 57/21/18 59/47/18
f 34/22/10 68/4/10 45/41/10
f 26/27/1 48/24/1 68/4/1
f 74/50/8 73/51/8 72/52/8
f 74/50/8 72/52/8 71/53/8
f 71/53/8 70/54/8 69/4/8
f 71/53/8 69/4/8 80/5/8
f 74/50/8 71/53/8 80/5/8
f 75/55/8 74/50/8 80/5/8
f 75/55/8 80/5/8 77/56/8
f 77/56/8 80/5/8 79/57/8
f 75/55/8 77/56/8 76/58/8
f 78/59/8 77/56/8 79/57/8
f 86/50/10 84/52/10 85/51/10
f 86/50/10 83/53/10 84/52/10
f 83/53/10 81/4/10 82/54/10
f 83/53/10 89/5/10 81/4/10
f 86/50/10 89/5/10 83/53/10
f 87/55/10 89/5/10 86/50/10
f 87/55/10 90/56/10 89/5/10
f 90/56/10 92/57/10 89/5/10
f 87/55/10 88/58/10 90/56/10
f 91/59/10 92/57/10 90/56/10
f 77/56/19 88/58/19 76/58/19
f 74/50/20 85/51/20 73/51/20
f 71/53/21 82/54/21 70/54/21
f 78/59/22 90/56/22 77/56/22
f 75/55/23 86/50/23 74/50/23
f 69/4/24 89/5/24 80/5/24
f 71/53/25 84/52/25 83/53/25
f 76/58/7 87/55/7 75/55/7
f 79/57/7 91/59/7 78/59/7
f 73/51/6 84/52/6 72/52/6
f 80/5/26 92/57/26 79/57/26
f 70/54/6 81/4/6 69/4/6
f 8/6/3 14/6/3 18/7/3
f 2/3/4 11/3/4 10/4/4
f 1/4/5 10/4/5 15/5/5
f 6/9/6 17/9/6 16/8/6
f 3/2/7 12/2/7 11/3/7
f 5/8/8 16/8/8 13/1/8
f 4/1/9 13/1/9 12/2/9
f 7/7/10 18/7/10 17/9/10
f 9/5/7 15/5/7 14/6/7
f 25/10/8 19/13/8 35/11/8
f 19/13/2 20/15/2 38/14/2
f 20/15/2 21/17/2 41/16/2
f 21/17/2 22/20/2 44/18/2
f 31/19/6 34/22/6 22/20/6
f 30/21/6 33/47/6 34/22/6
f 51/23/6 66/23/6 64/24/6
f 28/25/6 31/19/6 21/17/6
f 27/26/6 30/21/6 31/19/6
f 26/27/6 29/38/6 30/21/6
f 25/28/6 28/25/6 20/15/6
f 24/29/6 27/26/6 28/25/6
f 23/30/6 26/27/6 27/26/6
f 23/31/8 24/34/8 50/32/8
f 24/34/8 25/10/8 53/12/8
f 51/23/8 54/37/8 55/35/8
f 50/32/8 53/12/8 54/37/8
f 30/21/11 29/38/11 56/38/11
f 47/33/8 50/32/8 51/23/8
f 46/39/7 43/40/7 61/40/7
f 41/16/2 44/18/2 45/41/2
f 39/43/2 42/42/2 43/40/2
f 38/14/2 41/16/2 42/42/2
f 36/45/2 39/43/2 40/44/2
f 35/11/2 38/14/2 39/43/2
f 54/37/8 36/45/8 37/46/8
f 53/12/8 35/11/8 36/45/8
f 56/38/6 58/49/6 59/47/6
f 64/24/8 66/23/8 67/36/8
f 60/42/2 62/41/2 63/39/2
f 32/49/12 58/49/12 56/38/12
f 45/41/6 62/41/6 60/42/6
f 33/47/13 59/47/13 58/49/13
f 42/42/14 60/42/14 61/40/14
f 48/24/15 64/24/15 65/48/15
f 46/39/16 63/39/16 62/41/16
f 52/36/17 67/36/17 66/23/17
f 52/36/7 49/48/7 65/48/7
f 33/47/18 30/21/18 57/21/18
f 33/47/10 32/49/10 68/4/10
f 68/4/10 46/39/10 45/41/10
f 45/41/10 44/18/10 22/20/10
f 34/22/10 33/47/10 68/4/10
f 45/41/10 22/20/10 34/22/10
f 68/4/1 32/49/1 29/38/1
f 26/27/1 23/31/1 47/33/1
f 68/4/1 29/38/1 26/27/1
f 48/24/1 49/48/1 68/4/1
f 26/27/1 47/33/1 48/24/1
f 77/56/19 90/56/19 88/58/19
f 74/50/20 86/50/20 85/51/20
f 71/53/21 83/53/21 82/54/21
f 78/59/22 91/59/22 90/56/22
f 75/55/23 87/55/23 86/50/23
f 69/4/24 81/4/24 89/5/24
f 71/53/25 72/52/25 84/52/25
f 76/58/7 88/58/7 87/55/7
f 79/57/7 92/57/7 91/59/7
f 73/51/6 85/51/6 84/52/6
f 80/5/26 89/5/26 92/57/26
f 70/54/6 82/54/6 81/4/6
